<svg width="20" height="21" viewBox="0 0 20 21" fill="none" xmlns="http://www.w3.org/2000/svg">
<path fill-rule="evenodd" clip-rule="evenodd" d="M2.5 0.5C2.74546 0.5 2.94961 0.676875 2.99194 0.910124L3 1V17.5H19.5C19.7761 17.5 20 17.7239 20 18C20 18.2455 19.8231 18.4496 19.5899 18.4919L19.5 18.5H3V20C3 20.2761 2.77614 20.5 2.5 20.5C2.25454 20.5 2.05039 20.3231 2.00806 20.0899L2 20V18.5H0.5C0.223858 18.5 0 18.2761 0 18C0 17.7545 0.176875 17.5504 0.410124 17.5081L0.5 17.5H2V1C2 0.723858 2.22386 0.5 2.5 0.5ZM12.2 9.5C12.6078 9.5 12.9444 9.80519 12.9938 10.1996L13 10.3V14.7C13 15.1078 12.6948 15.4444 12.3004 15.4938L12.2 15.5H10.8C10.3922 15.5 10.0556 15.1948 10.0062 14.8004L10 14.7V10.3C10 9.89216 10.3052 9.5556 10.6996 9.50623L10.8 9.5H12.2ZM7.2 11.5C7.60784 11.5 7.9444 11.8052 7.99377 12.1996L8 12.3V14.7C8 15.1078 7.69481 15.4444 7.30035 15.4938L7.2 15.5H5.8C5.39216 15.5 5.0556 15.1948 5.00623 14.8004L5 14.7V12.3C5 11.8922 5.30519 11.5556 5.69965 11.5062L5.8 11.5H7.2ZM17.2 7.5C17.6078 7.5 17.9444 7.80519 17.9938 8.19965L18 8.3V14.7C18 15.1078 17.6948 15.4444 17.3004 15.4938L17.2 15.5H15.8C15.3922 15.5 15.0556 15.1948 15.0062 14.8004L15 14.7V8.3C15 7.89216 15.3052 7.5556 15.6996 7.50623L15.8 7.5H17.2ZM12 10.5H11V14.5H12V10.5ZM7 12.5H6V14.5H7V12.5ZM17 8.5H16V14.5H17V8.5ZM14.4101 1.50806L14.5 1.5H17.5L17.5534 1.50282L17.6463 1.52174L17.7318 1.5568L17.8021 1.6015L17.8536 1.64645L17.891 1.68834L17.9333 1.75023L17.9624 1.8094L17.9834 1.87186L17.9948 1.92772L18 2V5C18 5.27614 17.7761 5.5 17.5 5.5C17.2545 5.5 17.0504 5.32312 17.0081 5.08988L17 5V3.206L12.3536 7.85355C12.18 8.02712 11.9106 8.0464 11.7157 7.91141L11.6464 7.85355L10 6.207L5.85355 10.3536C5.67999 10.5271 5.41056 10.5464 5.21569 10.4114L5.14645 10.3536C4.97288 10.18 4.9536 9.91056 5.08859 9.71569L5.14645 9.64645L9.64645 5.14645C9.82001 4.97288 10.0894 4.9536 10.2843 5.08859L10.3536 5.14645L12 6.793L16.292 2.5H14.5C14.2239 2.5 14 2.27614 14 2C14 1.75454 14.1769 1.55039 14.4101 1.50806Z" fill="#566170"/>
</svg>
