<svg width="20" height="19" viewBox="0 0 20 19" fill="none" xmlns="http://www.w3.org/2000/svg">
<path fill-rule="evenodd" clip-rule="evenodd" d="M10.9136 1.00455C11.2324 1.16823 11.5003 1.41399 11.6906 1.71506L11.7791 1.87007L18.8226 15.5864C19.3272 16.569 18.9397 17.7746 17.9571 18.2791C17.731 18.3953 17.4853 18.4669 17.2334 18.491L17.0435 18.5H2.95648C1.85191 18.5 0.956482 17.6046 0.956482 16.5C0.956482 16.2458 1.00494 15.9945 1.09864 15.7594L1.17735 15.5864L8.22086 1.87007C8.72544 0.887481 9.93102 0.499973 10.9136 1.00455ZM9.16969 2.22621L9.11043 2.32687L2.06692 16.0432C1.99434 16.1845 1.95648 16.3411 1.95648 16.5C1.95648 17.0128 2.34252 17.4355 2.83986 17.4933L2.95648 17.5H17.0435C17.2024 17.5 17.359 17.4621 17.5003 17.3896C17.9565 17.1553 18.1562 16.6188 17.9804 16.15L17.9331 16.0432L10.8896 2.32687C10.7941 2.14094 10.6427 1.98959 10.4568 1.89411C10.0006 1.65985 9.44826 1.81018 9.16969 2.22621ZM10 14.5C10.2761 14.5 10.5 14.7239 10.5 15C10.5 15.2761 10.2761 15.5 10 15.5C9.72386 15.5 9.5 15.2761 9.5 15C9.5 14.7239 9.72386 14.5 10 14.5ZM10 6.5C10.2455 6.5 10.4496 6.67688 10.4919 6.91013L10.5 7V12C10.5 12.2761 10.2761 12.5 10 12.5C9.75454 12.5 9.55039 12.3231 9.50805 12.0899L9.5 12V7C9.5 6.72386 9.72386 6.5 10 6.5Z" fill="#2C79E7"/>
</svg>
