<svg width="20" height="19" viewBox="0 0 20 19" fill="none" xmlns="http://www.w3.org/2000/svg">
<path fill-rule="evenodd" clip-rule="evenodd" d="M10.9137 1.00455C11.2324 1.16823 11.5003 1.414 11.6906 1.71506L11.7792 1.87008L18.8227 15.5864C19.3273 16.569 18.9398 17.7746 17.9572 18.2791C17.7311 18.3953 17.4854 18.4669 17.2335 18.491L17.0436 18.5H2.95654C1.85197 18.5 0.956543 17.6046 0.956543 16.5C0.956543 16.2458 1.005 15.9945 1.0987 15.7595L1.17741 15.5864L8.22093 1.87008C8.7255 0.887487 9.93108 0.499979 10.9137 1.00455ZM9.16975 2.22621L9.11049 2.32688L2.06698 16.0432C1.9944 16.1845 1.95654 16.3411 1.95654 16.5C1.95654 17.0128 2.34258 17.4355 2.83992 17.4933L2.95654 17.5H17.0436C17.2025 17.5 17.359 17.4621 17.5004 17.3896C17.9566 17.1553 18.1562 16.6188 17.9804 16.15L17.9331 16.0432L10.8896 2.32688C10.7941 2.14094 10.6428 1.9896 10.4569 1.89412C10.0007 1.65985 9.44832 1.81018 9.16975 2.22621ZM10.0001 14.5C10.2762 14.5 10.5001 14.7239 10.5001 15C10.5001 15.2761 10.2762 15.5 10.0001 15.5C9.72392 15.5 9.50006 15.2761 9.50006 15C9.50006 14.7239 9.72392 14.5 10.0001 14.5ZM10.0001 6.50001C10.2455 6.50001 10.4497 6.67688 10.492 6.91013L10.5001 7.00001V12C10.5001 12.2761 10.2762 12.5 10.0001 12.5C9.7546 12.5 9.55045 12.3231 9.50811 12.0899L9.50006 12V7.00001C9.50006 6.72386 9.72392 6.50001 10.0001 6.50001Z" fill="#566170"/>
</svg>
