<svg width="24" height="25" viewBox="0 0 24 25" fill="none" xmlns="http://www.w3.org/2000/svg">
<path fill-rule="evenodd" clip-rule="evenodd" d="M3.5 5.5H20.5C20.7761 5.5 21 5.72386 21 6C21 6.27614 20.7761 6.5 20.5 6.5H3.5C3.22386 6.5 3 6.27614 3 6C3 5.72386 3.22386 5.5 3.5 5.5ZM3.5 11.5H20.5C20.7761 11.5 21 11.7239 21 12C21 12.2761 20.7761 12.5 20.5 12.5H3.5C3.22386 12.5 3 12.2761 3 12C3 11.7239 3.22386 11.5 3.5 11.5ZM3.5 17.5H20.5C20.7761 17.5 21 17.7239 21 18C21 18.2761 20.7761 18.5 20.5 18.5H3.5C3.22386 18.5 3 18.2761 3 18C3 17.7239 3.22386 17.5 3.5 17.5Z" fill="#2C79E7"/>
</svg>
