<svg width="18" height="19" viewBox="0 0 18 19" fill="none" xmlns="http://www.w3.org/2000/svg">
<path fill-rule="evenodd" clip-rule="evenodd" d="M17 8.5C17.5523 8.5 18 8.94772 18 9.5V17.5C18 18.0523 17.5523 18.5 17 18.5H11C10.4477 18.5 10 18.0523 10 17.5V9.5C10 8.94772 10.4477 8.5 11 8.5H17ZM7 12.5C7.55228 12.5 8 12.9477 8 13.5V17.5C8 18.0523 7.55228 18.5 7 18.5H1C0.447715 18.5 0 18.0523 0 17.5V13.5C0 12.9477 0.447715 12.5 1 12.5H7ZM16.5 9.5H11.5C11.2239 9.5 11 9.72386 11 10V17C11 17.2761 11.2239 17.5 11.5 17.5H16.5C16.7761 17.5 17 17.2761 17 17V10C17 9.72386 16.7761 9.5 16.5 9.5ZM6.5 13.5H1.5C1.22386 13.5 1 13.7239 1 14V17C1 17.2761 1.22386 17.5 1.5 17.5H6.5C6.77614 17.5 7 17.2761 7 17V14C7 13.7239 6.77614 13.5 6.5 13.5ZM7 0.5C7.55228 0.5 8 0.947715 8 1.5V9.5C8 10.0523 7.55228 10.5 7 10.5H1C0.447715 10.5 0 10.0523 0 9.5V1.5C0 0.947715 0.447715 0.5 1 0.5H7ZM6.5 1.5H1.5C1.22386 1.5 1 1.72386 1 2V9C1 9.27614 1.22386 9.5 1.5 9.5H6.5C6.77614 9.5 7 9.27614 7 9V2C7 1.72386 6.77614 1.5 6.5 1.5ZM17 0.5C17.5523 0.5 18 0.947715 18 1.5V5.5C18 6.05228 17.5523 6.5 17 6.5H11C10.4477 6.5 10 6.05228 10 5.5V1.5C10 0.947715 10.4477 0.5 11 0.5H17ZM16.5 1.5H11.5C11.2239 1.5 11 1.72386 11 2V5C11 5.27614 11.2239 5.5 11.5 5.5H16.5C16.7761 5.5 17 5.27614 17 5V2C17 1.72386 16.7761 1.5 16.5 1.5Z" fill="#566170"/>
</svg>
