<svg width="18" height="21" viewBox="0 0 18 21" fill="none" xmlns="http://www.w3.org/2000/svg">
<path fill-rule="evenodd" clip-rule="evenodd" d="M4 0.5C6.03989 0.5 7.72314 2.02697 7.96908 4.00024L14.063 3.99998C14.285 3.13738 15.0681 2.5 16 2.5C17.1046 2.5 18 3.39543 18 4.5C18 5.43155 17.3631 6.21435 16.501 6.43673V10.5633C17.3631 10.7856 18 11.5684 18 12.5C18 13.6046 17.1046 14.5 16 14.5C15.0684 14.5 14.2856 13.8631 14.0633 13.001L5.93689 13.0004C5.75598 13.7027 5.20321 14.2556 4.50102 14.4367L4.50002 16.563C5.20296 16.7439 5.75633 17.2974 5.9371 18.0004L14.063 18C14.285 17.1374 15.0681 16.5 16 16.5C17.1046 16.5 18 17.3954 18 18.5C18 19.6046 17.1046 20.5 16 20.5C15.0684 20.5 14.2856 19.8631 14.0633 19.001H5.93673C5.71435 19.8631 4.93155 20.5 4 20.5C2.89543 20.5 2 19.6046 2 18.5C2 17.5684 2.63688 16.7856 3.49898 16.5633L3.49998 14.437C2.63738 14.215 2 13.4319 2 12.5C2 11.3954 2.89543 10.5 4 10.5C4.93191 10.5 5.71496 11.1374 5.93699 12H14.063C14.2439 11.297 14.7974 10.7437 15.5004 10.5629L15.5 6.43699C14.7974 6.25614 14.2442 5.7031 14.0632 5.00059L7.96896 5.00076C7.72257 6.97355 6.03955 8.5 4 8.5C1.79086 8.5 0 6.70914 0 4.5C0 2.29086 1.79086 0.5 4 0.5ZM4 17.5C3.44772 17.5 3 17.9477 3 18.5C3 19.0523 3.44772 19.5 4 19.5C4.55228 19.5 5 19.0523 5 18.5C5 17.9477 4.55228 17.5 4 17.5ZM16 17.5C15.4477 17.5 15 17.9477 15 18.5C15 19.0523 15.4477 19.5 16 19.5C16.5523 19.5 17 19.0523 17 18.5C17 17.9477 16.5523 17.5 16 17.5ZM4 11.5C3.44772 11.5 3 11.9477 3 12.5C3 13.0523 3.44772 13.5 4 13.5C4.55228 13.5 5 13.0523 5 12.5C5 11.9477 4.55228 11.5 4 11.5ZM16 11.5C15.4477 11.5 15 11.9477 15 12.5C15 13.0523 15.4477 13.5 16 13.5C16.5523 13.5 17 13.0523 17 12.5C17 11.9477 16.5523 11.5 16 11.5ZM4 1.5C2.34315 1.5 1 2.84315 1 4.5C1 6.15685 2.34315 7.5 4 7.5C5.65685 7.5 7 6.15685 7 4.5C7 2.84315 5.65685 1.5 4 1.5ZM16 3.5C15.4477 3.5 15 3.94772 15 4.5C15 5.05228 15.4477 5.5 16 5.5C16.5523 5.5 17 5.05228 17 4.5C17 3.94772 16.5523 3.5 16 3.5ZM4 2.5C4.24546 2.5 4.44961 2.67688 4.49194 2.91012L4.5 3V4H5.5C5.77614 4 6 4.22386 6 4.5C6 4.74546 5.82312 4.94961 5.58988 4.99194L5.5 5H4C3.75454 5 3.55039 4.82312 3.50806 4.58988L3.5 4.5V3C3.5 2.72386 3.72386 2.5 4 2.5Z" fill="#566170"/>
</svg>
