<svg width="22" height="20" viewBox="0 0 22 20" fill="none" xmlns="http://www.w3.org/2000/svg">
<path d="M11.0022 0.5C15.6328 0.5 19.4478 4.00021 19.9451 8.50031L18.9381 8.50032C18.851 7.80158 18.6738 7.13082 18.4185 6.50004L15.9167 6.50048C16.176 7.16519 16.3491 7.83193 16.4355 8.50075L15.4255 8.5C15.3267 7.83605 15.1295 7.16955 14.8331 6.50053L11.5 6.5L11.4999 8.5H10.4999L10.5 6.5L7.16689 6.50053C6.87055 7.16955 6.67333 7.83605 6.57451 8.5L5.56447 8.50075C5.65085 7.83193 5.82397 7.16519 6.08329 6.50048L3.58151 6.50004C3.32617 7.13082 3.14896 7.80158 3.06185 8.50032L2.0549 8.50031C2.54267 4.08643 6.22237 0.634499 10.7346 0.503843L11.0022 0.5ZM9.55603 1.6302L9.5356 1.63373C7.19981 2.06582 5.21995 3.51264 4.07035 5.49985L6.53895 5.50094C7.2162 4.20291 8.22321 2.9127 9.55603 1.6302ZM10.4992 2.11406C9.28064 3.24968 8.34298 4.37839 7.6829 5.50011L10.5 5.5L10.4992 2.11406ZM11.5018 2.11499L11.5 5.5L14.3171 5.50011C13.6572 4.3787 12.7199 3.25029 11.5018 2.11499ZM12.4425 1.62972L12.5688 1.75129C13.8398 2.99391 14.8051 4.24376 15.4611 5.50094L17.9296 5.49985C16.7765 3.50644 14.7878 2.0568 12.4425 1.62972ZM20.5 9.50001C21.3284 9.50001 22 10.1716 22 11V18C22 18.8284 21.3284 19.5 20.5 19.5H1.5C0.671573 19.5 0 18.8284 0 18V11C0 10.1716 0.671573 9.50001 1.5 9.50001H20.5ZM20.5 10.5H1.5C1.22386 10.5 1 10.7239 1 11V18C1 18.2761 1.22386 18.5 1.5 18.5H20.5C20.7761 18.5 21 18.2761 21 18V11C21 10.7239 20.7761 10.5 20.5 10.5ZM7.15811 12.5257C7.42008 12.613 7.56167 12.8961 7.47434 13.1581L6.47434 16.1581C6.32705 16.6 5.70875 16.6182 5.53576 16.1857L5 14.846L4.46424 16.1857C4.30361 16.5873 3.75901 16.6003 3.5641 16.2463L3.52566 16.1581L2.52566 13.1581C2.43833 12.8961 2.57991 12.613 2.84189 12.5257C3.10386 12.4383 3.38702 12.5799 3.47434 12.8419L4.042 14.546L4.53576 13.3143C4.69142 12.9252 5.21404 12.8974 5.42211 13.2309L5.46424 13.3143L5.957 14.546L6.52566 12.8419C6.61298 12.5799 6.89614 12.4383 7.15811 12.5257ZM13.1581 12.5257C13.4201 12.613 13.5617 12.8961 13.4743 13.1581L12.4743 16.1581C12.327 16.6 11.7087 16.6182 11.5358 16.1857L11 14.846L10.4642 16.1857C10.3036 16.5873 9.75901 16.6003 9.5641 16.2463L9.52566 16.1581L8.52566 13.1581C8.43833 12.8961 8.57992 12.613 8.84189 12.5257C9.10386 12.4383 9.38702 12.5799 9.47434 12.8419L10.042 14.546L10.5358 13.3143C10.6914 12.9252 11.214 12.8974 11.4221 13.2309L11.4642 13.3143L11.957 14.546L12.5257 12.8419C12.613 12.5799 12.8961 12.4383 13.1581 12.5257ZM19.1581 12.5257C19.4201 12.613 19.5617 12.8961 19.4743 13.1581L18.4743 16.1581C18.327 16.6 17.7087 16.6182 17.5358 16.1857L17 14.846L16.4642 16.1857C16.3036 16.5873 15.759 16.6003 15.5641 16.2463L15.5257 16.1581L14.5257 13.1581C14.4383 12.8961 14.5799 12.613 14.8419 12.5257C15.1039 12.4383 15.387 12.5799 15.4743 12.8419L16.042 14.546L16.5358 13.3143C16.6914 12.9252 17.214 12.8974 17.4221 13.2309L17.4642 13.3143L17.957 14.546L18.5257 12.8419C18.613 12.5799 18.8961 12.4383 19.1581 12.5257Z" fill="#566170"/>
</svg>
