<svg width="22" height="21" viewBox="0 0 22 21" fill="none" xmlns="http://www.w3.org/2000/svg">
<path d="M11 0.5C12.3807 0.5 13.5 1.61929 13.5 3V3.07168C13.5009 3.28757 13.6298 3.48234 13.8365 3.57095C14.0391 3.66035 14.2757 3.61745 14.4274 3.46908L14.4771 3.41941C14.946 2.94996 15.5823 2.68619 16.2458 2.68619C16.9094 2.68619 17.5457 2.94996 18.0139 3.41875C18.4834 3.88767 18.7471 4.52398 18.7471 5.1875C18.7471 5.85102 18.4834 6.48733 18.0143 6.95592L17.9707 6.99939C17.8159 7.15768 17.773 7.39428 17.8624 7.59686C17.8859 7.65026 17.9038 7.70583 17.9157 7.76265C18.0147 7.90867 18.1803 7.99928 18.3583 8H18.5C19.5248 8 20.4056 8.61666 20.7916 9.49917L19.6171 9.49893C19.3726 9.22631 19.0298 9.04369 18.6445 9.00687L18.5 9H18.3543C17.8964 8.99815 17.4671 8.79121 17.1788 8.44462L17.0881 8.32401L16.9773 8.16067L16.938 7.977L16.8955 7.86599C16.7289 7.36708 16.8293 6.81598 17.1664 6.40128L17.2642 6.2917L17.3075 6.24842C17.5889 5.96737 17.7471 5.58558 17.7471 5.1875C17.7471 4.78939 17.5889 4.4076 17.3064 4.12546C17.0257 3.8444 16.6439 3.68619 16.2458 3.68619C15.8975 3.68619 15.5616 3.80736 15.2944 4.02661L15.1842 4.12651L15.1265 4.18411C14.6798 4.62082 14.0058 4.73874 13.4423 4.49C12.9165 4.26452 12.5606 3.77673 12.507 3.21385L12.5 3.07168V3C12.5 2.17157 11.8284 1.5 11 1.5C10.2203 1.5 9.57955 2.09489 9.50687 2.85554L9.5 3V3.14569C9.49815 3.60363 9.29121 4.03287 8.94462 4.32118L8.82401 4.4119L8.66067 4.5227L8.477 4.561L8.36599 4.60454C7.86708 4.77108 7.31598 4.67075 6.90128 4.3336L6.7917 4.23581L6.74842 4.19246C6.46737 3.91109 6.08558 3.75286 5.6875 3.75286C5.28939 3.75286 4.9076 3.91112 4.62546 4.19357C4.3444 4.47432 4.18619 4.85613 4.18619 5.25417C4.18619 5.60252 4.30736 5.93836 4.52661 6.20563L4.62651 6.31581L4.68411 6.37349C5.12082 6.82017 5.23874 7.4942 5.00738 8.01438C4.78391 8.61083 4.28416 8.99617 3.64893 9.05815L3.5 9.06667C3.08985 9.06667 2.71814 9.23128 2.44735 9.49805L1.23878 9.49904C1.63924 8.65237 2.50122 8.06667 3.5 8.06667C3.77787 8.06169 3.97445 7.92109 4.07095 7.66353C4.16035 7.46095 4.11745 7.22435 3.96908 7.07259L3.91941 7.02292C3.44996 6.554 3.18619 5.91769 3.18619 5.25417C3.18619 4.59064 3.44996 3.95434 3.91875 3.48607C4.38767 3.01663 5.02398 2.75286 5.6875 2.75286C6.35102 2.75286 6.98733 3.01663 7.45592 3.48574L7.49939 3.52928C7.65768 3.68412 7.89428 3.72702 8.09686 3.63761C8.15026 3.61405 8.20583 3.59622 8.26265 3.58433C8.40867 3.48528 8.49928 3.31972 8.5 3.14167V3C8.5 1.61929 9.61929 0.5 11 0.5ZM11 6.5C12.8636 6.5 14.4295 7.7744 14.8738 9.49924L13.829 9.4991C13.4169 8.33438 12.3059 7.5 11 7.5C9.69412 7.5 8.58311 8.33438 8.17102 9.4991L7.12621 9.49924C7.57052 7.7744 9.13643 6.5 11 6.5ZM20.5 10.5C21.3284 10.5 22 11.1716 22 12V19C22 19.8284 21.3284 20.5 20.5 20.5H1.5C0.671573 20.5 0 19.8284 0 19V12C0 11.1716 0.671573 10.5 1.5 10.5H20.5ZM20.5 11.5H1.5C1.22386 11.5 1 11.7239 1 12V19C1 19.2761 1.22386 19.5 1.5 19.5H20.5C20.7761 19.5 21 19.2761 21 19V12C21 11.7239 20.7761 11.5 20.5 11.5ZM7.15811 13.5257C7.42009 13.613 7.56167 13.8961 7.47434 14.1581L6.47434 17.1581C6.32705 17.6 5.70875 17.6182 5.53576 17.1857L5 15.846L4.46424 17.1857C4.30361 17.5873 3.75901 17.6003 3.5641 17.2463L3.52566 17.1581L2.52566 14.1581C2.43833 13.8961 2.57991 13.613 2.84189 13.5257C3.10386 13.4383 3.38702 13.5799 3.47434 13.8419L4.042 15.546L4.53576 14.3143C4.69142 13.9252 5.21404 13.8974 5.42211 14.2309L5.46424 14.3143L5.957 15.546L6.52566 13.8419C6.61298 13.5799 6.89614 13.4383 7.15811 13.5257ZM13.1581 13.5257C13.4201 13.613 13.5617 13.8961 13.4743 14.1581L12.4743 17.1581C12.327 17.6 11.7087 17.6182 11.5358 17.1857L11 15.846L10.4642 17.1857C10.3036 17.5873 9.75901 17.6003 9.5641 17.2463L9.52566 17.1581L8.52566 14.1581C8.43833 13.8961 8.57991 13.613 8.84189 13.5257C9.10386 13.4383 9.38702 13.5799 9.47434 13.8419L10.042 15.546L10.5358 14.3143C10.6914 13.9252 11.214 13.8974 11.4221 14.2309L11.4642 14.3143L11.957 15.546L12.5257 13.8419C12.613 13.5799 12.8961 13.4383 13.1581 13.5257ZM19.1581 13.5257C19.4201 13.613 19.5617 13.8961 19.4743 14.1581L18.4743 17.1581C18.327 17.6 17.7087 17.6182 17.5358 17.1857L17 15.846L16.4642 17.1857C16.3036 17.5873 15.759 17.6003 15.5641 17.2463L15.5257 17.1581L14.5257 14.1581C14.4383 13.8961 14.5799 13.613 14.8419 13.5257C15.1039 13.4383 15.387 13.5799 15.4743 13.8419L16.042 15.546L16.5358 14.3143C16.6914 13.9252 17.214 13.8974 17.4221 14.2309L17.4642 14.3143L17.957 15.546L18.5257 13.8419C18.613 13.5799 18.8961 13.4383 19.1581 13.5257Z" fill="#566170"/>
</svg>
