<svg width="21" height="20" viewBox="0 0 21 20" fill="none" xmlns="http://www.w3.org/2000/svg">
<path fill-rule="evenodd" clip-rule="evenodd" d="M7.07295 3.5C7.64111 3.5 8.1605 3.821 8.41459 4.32918L8.8618 5.22361C8.9465 5.393 9.11963 5.5 9.30902 5.5H15.5C16.8807 5.5 18 6.61929 18 8V17C18 18.3255 16.9685 19.41 15.6644 19.4947L15.5 19.5H2.5C1.11929 19.5 0 18.3807 0 17V6C0 4.61929 1.11929 3.5 2.5 3.5H7.07295ZM15.5 9.5H2.5C1.7203 9.5 1.07955 10.0949 1.00687 10.8555L1 11V17C1 17.7797 1.59489 18.4204 2.35554 18.4931L2.5 18.5H15.5C16.2797 18.5 16.9204 17.9051 16.9931 17.1445L17 17V11C17 10.2203 16.4051 9.57955 15.6445 9.50687L15.5 9.5ZM7.07295 4.5H2.5C1.7203 4.5 1.07955 5.09489 1.00687 5.85554L1 6L1.00005 8.99978C1.41787 8.68596 1.93722 8.5 2.5 8.5H15.5C16.0632 8.5 16.583 8.68626 17.001 9.00055L17 8C17 7.2203 16.4051 6.57955 15.6445 6.50687L15.5 6.5H9.30902C8.78821 6.5 8.30837 6.23027 8.0363 5.79389L7.96738 5.67082L7.52016 4.77639C7.44958 4.63523 7.31759 4.5374 7.16595 4.50871L7.07295 4.5ZM10.0729 0.5C10.6411 0.5 11.1605 0.821003 11.4146 1.32918L11.8618 2.22361C11.9465 2.393 12.1196 2.5 12.309 2.5H18.5C19.8807 2.5 21 3.61929 21 5V14C21 15.2093 20.1413 16.2181 19.0004 16.4499L19.0007 15.4144C19.5395 15.2237 19.9368 14.7338 19.9931 14.1445L20 14V5C20 4.2203 19.4051 3.57955 18.6445 3.50687L18.5 3.5H12.309C11.7882 3.5 11.3084 3.23027 11.0363 2.79389L10.9674 2.67082L10.5202 1.77639C10.4496 1.63523 10.3176 1.5374 10.166 1.50871L10.0729 1.5H5.5C4.84678 1.5 4.29109 1.91754 4.08525 2.50029L3.04989 2.50057C3.28131 1.35917 4.29032 0.5 5.5 0.5H10.0729Z" fill="#566170"/>
</svg>
