<svg width="20" height="21" viewBox="0 0 20 21" fill="none" xmlns="http://www.w3.org/2000/svg">
<path fill-rule="evenodd" clip-rule="evenodd" d="M16.5 13.5C18.433 13.5 20 15.067 20 17C20 18.933 18.433 20.5 16.5 20.5C14.567 20.5 13 18.933 13 17C13 15.067 14.567 13.5 16.5 13.5ZM16.5 14.5C15.1193 14.5 14 15.6193 14 17C14 18.3807 15.1193 19.5 16.5 19.5C17.8807 19.5 19 18.3807 19 17C19 15.6193 17.8807 14.5 16.5 14.5ZM5.5 0.5C6.32843 0.5 7 1.17157 7 2V6C7 6.82843 6.32843 7.5 5.5 7.5H4V10.5H10.293L9.14645 9.35355C8.95118 9.15829 8.95118 8.84171 9.14645 8.64645C9.32001 8.47288 9.58944 8.4536 9.78431 8.58859L9.85355 8.64645L11.8536 10.6464C12.0271 10.82 12.0464 11.0894 11.9114 11.2843L11.8536 11.3536L9.85355 13.3536C9.65829 13.5488 9.34171 13.5488 9.14645 13.3536C8.97288 13.18 8.9536 12.9106 9.08859 12.7157L9.14645 12.6464L10.292 11.5H4L3.999 16.5H10.293L9.14645 15.3536C8.95118 15.1583 8.95118 14.8417 9.14645 14.6464C9.32001 14.4729 9.58944 14.4536 9.78431 14.5886L9.85355 14.6464L11.8536 16.6464C12.0271 16.82 12.0464 17.0894 11.9114 17.2843L11.8536 17.3536L9.85355 19.3536C9.65829 19.5488 9.34171 19.5488 9.14645 19.3536C8.97288 19.18 8.9536 18.9106 9.08859 18.7157L9.14645 18.6464L10.292 17.5H3.5C3.25454 17.5 3.05039 17.3231 3.00806 17.0899L3 17V7.5H1.5C0.671573 7.5 0 6.82843 0 6V2C0 1.17157 0.671573 0.5 1.5 0.5H5.5ZM16.5 7.5C18.433 7.5 20 9.067 20 11C20 11.8964 19.663 12.7141 19.1088 13.3333C18.8284 13.1331 18.5238 12.9644 18.2003 12.8323C18.6921 12.3765 19 11.7242 19 11C19 9.61929 17.8807 8.5 16.5 8.5C15.1193 8.5 14 9.61929 14 11C14 11.7242 14.3079 12.3765 14.8 12.8331C14.4762 12.9644 14.1716 13.1331 13.8909 13.3332C13.337 12.7141 13 11.8964 13 11C13 9.067 14.567 7.5 16.5 7.5ZM5.5 1.5H1.5C1.25454 1.5 1.05039 1.67688 1.00806 1.91012L1 2V6C1 6.24546 1.17688 6.44961 1.41012 6.49194L1.5 6.5H5.5C5.74546 6.5 5.94961 6.32312 5.99194 6.08988L6 6V2C6 1.75454 5.82312 1.55039 5.58988 1.50806L5.5 1.5Z" fill="#2C79E7"/>
</svg>
