<svg width="20" height="21" viewBox="0 0 20 21" fill="none" xmlns="http://www.w3.org/2000/svg">
<path fill-rule="evenodd" clip-rule="evenodd" d="M18.6 9.5C19.3732 9.5 20 10.1268 20 10.9V19.1C20 19.8732 19.3732 20.5 18.6 20.5H6.4C5.6268 20.5 5 19.8732 5 19.1V10.9C5 10.1268 5.6268 9.5 6.4 9.5H18.6ZM14.306 15.513L13.1783 16.5543C12.7952 16.9079 12.2048 16.9079 11.8217 16.5543L10.693 15.513L6.706 19.5H18.293L14.306 15.513ZM19 11.18L15.041 14.834L19 18.793V11.18ZM6 11.181V18.792L9.958 14.834L6 11.181ZM2.5 12.5C2.77614 12.5 3 12.7239 3 13C3 13.2761 2.77614 13.5 2.5 13.5H1.5C1.22386 13.5 1 13.7239 1 14V16C1 16.2761 1.22386 16.5 1.5 16.5H2.5C2.77614 16.5 3 16.7239 3 17C3 17.2761 2.77614 17.5 2.5 17.5H1.5C0.671573 17.5 0 16.8284 0 16V14C0 13.1716 0.671573 12.5 1.5 12.5H2.5ZM18.261 10.5H6.738L12.5 15.8195L18.261 10.5ZM2.5 14.5C2.77614 14.5 3 14.7239 3 15C3 15.2761 2.77614 15.5 2.5 15.5C2.22386 15.5 2 15.2761 2 15C2 14.7239 2.22386 14.5 2.5 14.5ZM16.5 6.5C16.7761 6.5 17 6.72386 17 7C17 7.27614 16.7761 7.5 16.5 7.5H1.5C1.22386 7.5 1 7.72386 1 8V10C1 10.2761 1.22386 10.5 1.5 10.5H2.5C2.77614 10.5 3 10.7239 3 11C3 11.2761 2.77614 11.5 2.5 11.5H1.5C0.671573 11.5 0 10.8284 0 10V8C0 7.17157 0.671573 6.5 1.5 6.5H16.5ZM2.5 8.5C2.77614 8.5 3 8.72386 3 9C3 9.27614 2.77614 9.5 2.5 9.5C2.22386 9.5 2 9.27614 2 9C2 8.72386 2.22386 8.5 2.5 8.5ZM15.5 0.5C16.3284 0.5 17 1.17157 17 2V4C17 4.82843 16.3284 5.5 15.5 5.5H1.5C0.671573 5.5 0 4.82843 0 4V2C0 1.17157 0.671573 0.5 1.5 0.5H15.5ZM15.5 1.5H1.5C1.25454 1.5 1.05039 1.67688 1.00806 1.91012L1 2V4C1 4.24546 1.17688 4.44961 1.41012 4.49194L1.5 4.5H15.5C15.7455 4.5 15.9496 4.32312 15.9919 4.08988L16 4V2C16 1.75454 15.8231 1.55039 15.5899 1.50806L15.5 1.5ZM2.5 2.5C2.77614 2.5 3 2.72386 3 3C3 3.27614 2.77614 3.5 2.5 3.5C2.22386 3.5 2 3.27614 2 3C2 2.72386 2.22386 2.5 2.5 2.5ZM4.5 2.5C4.77614 2.5 5 2.72386 5 3C5 3.27614 4.77614 3.5 4.5 3.5C4.22386 3.5 4 3.27614 4 3C4 2.72386 4.22386 2.5 4.5 2.5ZM6.5 2.5C6.77614 2.5 7 2.72386 7 3C7 3.27614 6.77614 3.5 6.5 3.5C6.22386 3.5 6 3.27614 6 3C6 2.72386 6.22386 2.5 6.5 2.5Z" fill="black"/>
</svg>
