<svg width="20" height="15" viewBox="0 0 20 15" fill="none" xmlns="http://www.w3.org/2000/svg">
<path fill-rule="evenodd" clip-rule="evenodd" d="M17.5 0.5C18.8807 0.5 20 1.61929 20 3V12C20 13.3807 18.8807 14.5 17.5 14.5H2.5C1.11929 14.5 0 13.3807 0 12V3C0 1.61929 1.11929 0.5 2.5 0.5H17.5ZM1.00687 2.85554L1 3V12C1 12.7797 1.59489 13.4204 2.35554 13.4931L2.5 13.5H17.5C18.2797 13.5 18.9204 12.9051 18.9931 12.1445L19 12V3C19 2.66236 18.8884 2.35078 18.7002 2.1001L11.5 7.5C10.6634 8.12745 9.53153 8.16436 8.66019 7.61073L8.5 7.5L1.3 2.1L1.30804 2.08926C1.1423 2.30584 1.03425 2.56892 1.00687 2.85554ZM17.5 1.5H2.5C2.39967 1.5 2.30164 1.50985 2.20683 1.52864L9.1 6.7C9.59231 7.06923 10.255 7.09763 10.7736 6.78521L10.9 6.7L17.7932 1.52864C17.7444 1.51897 17.6948 1.51168 17.6445 1.50687L17.5 1.5Z" fill="#2C79E7"/>
</svg>
