<svg width="17" height="21" viewBox="0 0 17 21" fill="none" xmlns="http://www.w3.org/2000/svg">
<path fill-rule="evenodd" clip-rule="evenodd" d="M6.5 2.5C6.77614 2.5 7 2.72386 7 3C7 3.24546 6.82312 3.44961 6.58988 3.49194L6.5 3.5H4.5C3.7203 3.5 3.07955 4.09489 3.00687 4.85554L3 5V18.0846C3 18.8643 3.59489 19.4219 4.35554 19.4946L4.51154 19.5014L13.5192 19.4946C14.2947 19.4886 14.9213 18.9157 14.9932 18.159L15 18.0153V13C15 12.7239 15.2239 12.5 15.5 12.5C15.7455 12.5 15.9496 12.6769 15.9919 12.9101L16 13V18.0153C16 19.3336 14.9792 20.4017 13.6827 20.4954H13.5192L4.5 20.5019C3.17452 20.5019 2.08996 19.553 2.00532 18.2489L2 18.0846V5C2 3.67452 3.03154 2.58996 4.33562 2.50532L4.5 2.5H6.5ZM8.4 0.5C8.67614 0.5 8.9 0.723858 8.9 1C8.9 1.24546 8.72312 1.44961 8.48988 1.49194L8.4 1.5H2.5C1.7203 1.5 1.07955 2.09489 1.00687 2.85554L1 3V18C1 18.2761 0.776142 18.5 0.5 18.5C0.25454 18.5 0.0503916 18.3231 0.00805569 18.0899L0 18V3C0 1.67452 1.03154 0.589961 2.33562 0.505318L2.5 0.5H8.4ZM6.5 13.5C6.77614 13.5 7 13.7239 7 14V15C7 15.2761 6.77614 15.5 6.5 15.5C6.22386 15.5 6 15.2761 6 15V14C6 13.7239 6.22386 13.5 6.5 13.5ZM8.5 12.5C8.77614 12.5 9 12.7239 9 13V15C9 15.2761 8.77614 15.5 8.5 15.5C8.22386 15.5 8 15.2761 8 15V13C8 12.7239 8.22386 12.5 8.5 12.5ZM10.5 13.5C10.7761 13.5 11 13.7239 11 14V15C11 15.2761 10.7761 15.5 10.5 15.5C10.2239 15.5 10 15.2761 10 15V14C10 13.7239 10.2239 13.5 10.5 13.5ZM12.5 12.5C12.7761 12.5 13 12.7239 13 13V15C13 15.2761 12.7761 15.5 12.5 15.5C12.2239 15.5 12 15.2761 12 15V13C12 12.7239 12.2239 12.5 12.5 12.5ZM16.5115 2.50013L16.5408 2.50166L16.548 2.502L16.5534 2.50282L16.558 2.503L16.5699 2.50488L16.562 2.504L16.6052 2.51109C16.6123 2.51265 16.6196 2.51438 16.6268 2.51627L16.6463 2.52174C16.6626 2.52672 16.6786 2.53252 16.6941 2.53908C16.7065 2.54425 16.7192 2.55024 16.7318 2.55681C16.744 2.56329 16.7557 2.57002 16.767 2.57719C16.7788 2.58461 16.7906 2.59277 16.8021 2.6015C16.8158 2.61192 16.8288 2.62294 16.8413 2.63459L16.8654 2.65871L16.8824 2.67786L16.891 2.688L16.864 2.658L16.894 2.693L16.923 2.73319C16.93 2.74432 16.9367 2.75595 16.943 2.76787C16.9503 2.78172 16.9566 2.79546 16.9624 2.8094C16.9676 2.82197 16.9724 2.83526 16.9767 2.8488C16.9816 2.86417 16.9856 2.87953 16.9889 2.89501C16.9912 2.90563 16.9932 2.91662 16.9948 2.92772L16.9979 2.95417L16.9996 2.97964L17 3V6C17 6.27614 16.7761 6.5 16.5 6.5C16.2545 6.5 16.0504 6.32312 16.0081 6.08988L16 6V4.206L10.8536 9.35355C10.68 9.52712 10.4106 9.5464 10.2157 9.41141L10.1464 9.35355L8.5 7.707L6.85355 9.35355C6.67999 9.52712 6.41056 9.5464 6.21569 9.41141L6.14645 9.35355C5.97288 9.17999 5.9536 8.91056 6.08859 8.71569L6.14645 8.64645L8.14645 6.64645C8.32001 6.47288 8.58944 6.4536 8.78431 6.58859L8.85355 6.64645L10.5 8.293L15.292 3.5H13.5C13.2239 3.5 13 3.27614 13 3C13 2.75454 13.1769 2.55039 13.4101 2.50806L13.5 2.5L16.5115 2.50013Z" fill="#2C79E7"/>
</svg>
