<svg width="16" height="17" viewBox="0 0 16 17" fill="none" xmlns="http://www.w3.org/2000/svg">
<path fill-rule="evenodd" clip-rule="evenodd" d="M8 1.5C11.866 1.5 15 4.63401 15 8.5C15 12.366 11.866 15.5 8 15.5C4.13401 15.5 1 12.366 1 8.5C1 4.63401 4.13401 1.5 8 1.5ZM8 2.5C4.68629 2.5 2 5.18629 2 8.5C2 11.8137 4.68629 14.5 8 14.5C11.3137 14.5 14 11.8137 14 8.5C14 5.18629 11.3137 2.5 8 2.5ZM8 11.5C8.27614 11.5 8.5 11.7239 8.5 12C8.5 12.2761 8.27614 12.5 8 12.5C7.72386 12.5 7.5 12.2761 7.5 12C7.5 11.7239 7.72386 11.5 8 11.5ZM8 4.5C9.41273 4.5 10.5 5.54961 10.5 7C10.5 8.04196 9.87075 8.81521 8.71027 9.28714L8.5 9.36733V10C8.5 10.2761 8.27614 10.5 8 10.5C7.75454 10.5 7.55039 10.3231 7.50806 10.0899L7.5 10V9.36745C7.4999 8.94469 7.76569 8.56757 8.16385 8.42547C9.0934 8.09371 9.5 7.63146 9.5 7C9.5 6.10993 8.86818 5.5 8 5.5C7.17157 5.5 6.5 6.17157 6.5 7C6.5 7.27614 6.27614 7.5 6 7.5C5.72386 7.5 5.5 7.27614 5.5 7C5.5 5.61929 6.61929 4.5 8 4.5Z" fill="white"/>
</svg>
