<svg width="20" height="20" viewBox="0 0 20 20" fill="none" xmlns="http://www.w3.org/2000/svg">
<path fill-rule="evenodd" clip-rule="evenodd" d="M18.5 14.5C19.3284 14.5 20 15.1716 20 16V18C20 18.8284 19.3284 19.5 18.5 19.5H1.5C0.671573 19.5 0 18.8284 0 18V16C0 15.1716 0.671573 14.5 1.5 14.5H18.5ZM18.5 15.5H1.5C1.25454 15.5 1.05039 15.6769 1.00806 15.9101L1 16V18C1 18.2455 1.17688 18.4496 1.41012 18.4919L1.5 18.5H18.5C18.7455 18.5 18.9496 18.3231 18.9919 18.0899L19 18V16C19 15.7545 18.8231 15.5504 18.5899 15.5081L18.5 15.5ZM3.5 16.5C3.77614 16.5 4 16.7239 4 17C4 17.2761 3.77614 17.5 3.5 17.5C3.22386 17.5 3 17.2761 3 17C3 16.7239 3.22386 16.5 3.5 16.5ZM5.5 7.5C6.32843 7.5 7 8.17157 7 9V11C7 11.8284 6.32843 12.5 5.5 12.5H1.5C0.671573 12.5 0 11.8284 0 11V9C0 8.17157 0.671573 7.5 1.5 7.5H5.5ZM5.5 8.5H1.5C1.25454 8.5 1.05039 8.67688 1.00806 8.91012L1 9V11C1 11.2455 1.17688 11.4496 1.41012 11.4919L1.5 11.5H5.5C5.74546 11.5 5.94961 11.3231 5.99194 11.0899L6 11V9C6 8.75454 5.82312 8.55039 5.58988 8.50806L5.5 8.5ZM3.5 9.5C3.77614 9.5 4 9.72386 4 10C4 10.2761 3.77614 10.5 3.5 10.5C3.22386 10.5 3 10.2761 3 10C3 9.72386 3.22386 9.5 3.5 9.5ZM5.5 0.5C6.32843 0.5 7 1.17157 7 2V4C7 4.82843 6.32843 5.5 5.5 5.5H1.5C0.671573 5.5 0 4.82843 0 4V2C0 1.17157 0.671573 0.5 1.5 0.5H5.5ZM5.5 1.5H1.5C1.25454 1.5 1.05039 1.67688 1.00806 1.91012L1 2V4C1 4.24546 1.17688 4.44961 1.41012 4.49194L1.5 4.5H5.5C5.74546 4.5 5.94961 4.32312 5.99194 4.08988L6 4V2C6 1.75454 5.82312 1.55039 5.58988 1.50806L5.5 1.5ZM3.5 2.5C3.77614 2.5 4 2.72386 4 3C4 3.27614 3.77614 3.5 3.5 3.5C3.22386 3.5 3 3.27614 3 3C3 2.72386 3.22386 2.5 3.5 2.5ZM14.2005 0.5C14.9459 0.5 15.6154 0.955832 15.8887 1.64923L16.1525 2.31836L16.8396 2.1079C17.5524 1.88959 18.3261 2.12891 18.7912 2.71149C19.2561 3.29394 19.3175 4.10148 18.946 4.74753L18.5872 5.37138L19.1798 5.77683C19.795 6.19781 20.0905 6.95197 19.9251 7.67887C19.7598 8.40561 19.1668 8.95728 18.43 9.06977L17.7183 9.17843L17.7708 9.89473C17.8253 10.6382 17.4199 11.3394 16.7485 11.6632C16.0772 11.987 15.2761 11.8673 14.7288 11.3614L14.2 10.8727L13.6723 11.3609C13.125 11.8672 12.3236 11.9872 11.6521 11.6634C10.9803 11.3395 10.5748 10.638 10.6293 9.89423L10.6818 9.17843L9.97539 9.07058C9.23289 8.95722 8.6316 8.40807 8.45154 7.67887C8.27312 6.95632 8.56747 6.19953 9.18721 5.78742L9.81286 5.37138L9.45381 4.74636C9.08273 4.10037 9.14433 3.29319 9.60914 2.71099C10.074 2.1287 10.8475 1.88952 11.5599 2.10774L12.2476 2.31836L12.5118 1.64883C12.7855 0.95551 13.4552 0.5 14.2005 0.5ZM14.2005 1.5C13.9029 1.5 13.6322 1.66167 13.4894 1.91628L13.442 2.01598L13.1777 2.68551C13.0009 3.13353 12.5335 3.38652 12.0702 3.3026L11.9547 3.27452L11.267 3.06389C10.947 2.96586 10.5995 3.07331 10.3906 3.33491C10.2081 3.56351 10.1641 3.8694 10.2676 4.13649L10.3209 4.24825L10.68 4.87327C10.9222 5.29501 10.8241 5.8235 10.4624 6.13178L10.3666 6.20408L9.74093 6.62012C9.47258 6.79857 9.34512 7.12627 9.42238 7.43914C9.49631 7.73856 9.724 7.97227 10.0146 8.05728L10.1263 8.08203L10.8327 8.18988C11.309 8.2626 11.6597 8.66215 11.6808 9.13261L11.6791 9.25155L11.6266 9.96736C11.6021 10.3017 11.7844 10.617 12.0864 10.7626C12.3543 10.8918 12.6683 10.8636 12.9073 10.6961L12.9932 10.6268L13.521 10.1386C13.8722 9.81374 14.3983 9.78655 14.7789 10.0572L14.8788 10.1383L15.4075 10.627C15.6532 10.8541 16.0128 10.9079 16.3141 10.7625C16.5823 10.6332 16.756 10.3698 16.7741 10.0783L16.7735 9.96786L16.721 9.25155C16.6857 8.77105 16.9971 8.34013 17.451 8.21472L17.5673 8.18988L18.2791 8.08122C18.6097 8.03074 18.8759 7.78316 18.9501 7.45702C19.0161 7.1666 18.9185 6.86651 18.7018 6.67052L18.615 6.60212L18.0225 6.19667C17.6248 5.92457 17.4821 5.41239 17.6672 4.9793L17.7203 4.87286L18.0791 4.24901C18.2458 3.9591 18.2183 3.59671 18.0096 3.33534C17.8238 3.10259 17.5284 2.99174 17.2401 3.03889L17.1325 3.06405L16.4454 3.27452C15.9847 3.41562 15.4954 3.20776 15.2722 2.79302L15.2222 2.68511L14.9584 2.01598C14.8357 1.70463 14.5351 1.5 14.2005 1.5ZM14.2 4.37272C15.3046 4.37272 16.2 5.26815 16.2 6.37272C16.2 7.47729 15.3046 8.37272 14.2 8.37272C13.0955 8.37272 12.2 7.47729 12.2 6.37272C12.2 5.26815 13.0955 4.37272 14.2 4.37272ZM14.2 5.37272C13.6477 5.37272 13.2 5.82044 13.2 6.37272C13.2 6.92501 13.6477 7.37272 14.2 7.37272C14.7523 7.37272 15.2 6.92501 15.2 6.37272C15.2 5.82044 14.7523 5.37272 14.2 5.37272Z" fill="#566170"/>
</svg>
