<svg width="24" height="25" viewBox="0 0 24 25" fill="none" xmlns="http://www.w3.org/2000/svg">
<path d="M18.2222 14.6053V10.5588C18.2222 7.72029 16.28 5.32912 13.6489 4.61C13.3884 3.95882 12.752 3.5 12 3.5C11.248 3.5 10.6116 3.95882 10.3511 4.61C7.72 5.33 5.77778 7.72029 5.77778 10.5588V14.6053L4.26045 16.1115C4.17774 16.1933 4.11215 16.2905 4.06745 16.3976C4.02276 16.5046 3.99983 16.6194 4 16.7353V17.6176C4 17.8517 4.09365 18.0761 4.26035 18.2416C4.42705 18.407 4.65314 18.5 4.88889 18.5H19.1111C19.3469 18.5 19.573 18.407 19.7397 18.2416C19.9064 18.0761 20 17.8517 20 17.6176V16.7353C20.0002 16.6194 19.9772 16.5046 19.9325 16.3976C19.8878 16.2905 19.8223 16.1933 19.7396 16.1115L18.2222 14.6053Z" fill="white"/>
<path d="M13.8401 20.9502C13.3025 21.3086 12.6593 21.5008 12 21.5C11.3407 21.5008 10.6975 21.3086 10.1599 20.9502C9.62223 20.5917 9.21682 20.0849 9 19.5H15C14.7832 20.0849 14.3778 20.5917 13.8401 20.9502Z" fill="white"/>
</svg>
