<svg width="15" height="13" viewBox="0 0 15 13" fill="none" xmlns="http://www.w3.org/2000/svg">
<path fill-rule="evenodd" clip-rule="evenodd" d="M7.05279 0.776393C7.23705 0.407869 7.76296 0.407869 7.94722 0.776393L10.179 5.241L13.7 2.6C14.0482 2.33889 14.5247 2.61598 14.4999 3.02502L14.4881 3.10847L12.4881 12.1085C12.4373 12.3372 12.2344 12.5 12 12.5H3.00001C2.76566 12.5 2.56275 12.3372 2.51191 12.1085L0.511912 3.10847C0.411213 2.65532 0.928643 2.32148 1.30001 2.6L4.82001 5.24L7.05279 0.776393ZM11.8192 10.5H3.17816L3.40101 11.5H11.598L11.8192 10.5ZM7.50001 2.118L5.44722 6.22361C5.30771 6.50262 4.94957 6.58717 4.70001 6.4L1.78101 4.211L2.95616 9.504L3.00001 9.5H12L12.0402 9.504L13.217 4.212L10.3 6.4C10.0754 6.56845 9.76284 6.51682 9.60088 6.3014L9.55279 6.22361L7.50001 2.118Z" fill="#FBB03B"/>
</svg>
