<svg width="18" height="20" viewBox="0 0 18 20" fill="none" xmlns="http://www.w3.org/2000/svg">
<path fill-rule="evenodd" clip-rule="evenodd" d="M13.5 0.5C14.1532 0.5 14.7089 0.917543 14.9148 1.50029L16.5 1.5C17.3284 1.5 18 2.17157 18 3V4.5C18 6.15685 16.6569 7.5 15 7.5L14.9169 7.50059C14.553 9.66843 13.0266 11.442 11.0007 12.1583L11 14.5H12.5C13.3284 14.5 14 15.1716 14 16L14.0007 16.5856C14.5829 16.7917 15 17.3472 15 18V19C15 19.2761 14.7761 19.5 14.5 19.5H3.5C3.22386 19.5 3 19.2761 3 19V18C3 17.3468 3.41754 16.7911 4.00029 16.5852L4 16C4 15.1716 4.67157 14.5 5.5 14.5H7L7.00032 12.1587C4.97393 11.4426 3.4471 9.66887 3.08308 7.50073L3 7.5C1.34315 7.5 0 6.15685 0 4.5V3C0 2.17157 0.671573 1.5 1.5 1.5L3.08525 1.50029C3.29109 0.917543 3.84678 0.5 4.5 0.5H13.5ZM13.5 17.5H4.5C4.25454 17.5 4.05039 17.6769 4.00806 17.9101L4 18V18.5H14V18C14 17.7545 13.8231 17.5504 13.5899 17.5081L13.5 17.5ZM12.5 15.5H5.5C5.25454 15.5 5.05039 15.6769 5.00806 15.9101L5 16V16.5H13V16C13 15.7545 12.8231 15.5504 12.5899 15.5081L12.5 15.5ZM10 12.5H8V14.5H10V12.5ZM13.5 1.5H4.5C4.25454 1.5 4.05039 1.67688 4.00806 1.91012L4 2V6.5C4 9.18875 6.12231 11.3818 8.76613 11.4955L8.9816 11.5002L9.18811 11.4965C11.7945 11.4005 13.8812 9.31243 13.9951 6.72313L14 6.5V2C14 1.75454 13.8231 1.55039 13.5899 1.50806L13.5 1.5ZM8.46196 3.46042C8.60861 3.16326 8.96839 3.04126 9.26554 3.18791C9.38387 3.24631 9.47964 3.34209 9.53804 3.46042L10.214 4.829L11.7246 5.04901C12.0197 5.09189 12.2332 5.3428 12.2383 5.63161L12.232 5.72905C12.2131 5.85963 12.1516 5.98032 12.0571 6.07242L10.963 7.138L11.2219 8.64282C11.2723 8.93676 11.0997 9.2174 10.8266 9.31142L10.732 9.33561C10.6019 9.35792 10.4681 9.33673 10.3513 9.27533L9 8.564L7.64866 9.27533C7.38469 9.41411 7.06444 9.33664 6.89062 9.10594L6.83838 9.02345C6.77698 8.90666 6.75579 8.77288 6.77809 8.64282L7.036 7.138L5.94292 6.07242C5.732 5.86682 5.70472 5.54384 5.86372 5.30794L5.93207 5.22397C6.02418 5.12948 6.14487 5.06798 6.27545 5.04901L7.785 4.829L8.46196 3.46042ZM9 4.629L8.45035 5.74348L7.221 5.922L8.11066 6.78897L7.9 8.013L9 7.43511L10.099 8.013L9.88934 6.78897L10.778 5.922L9.54965 5.74348L9 4.629ZM16.5 2.5H15V6.5L15.1493 6.49451C16.1324 6.42198 16.9179 5.63877 16.994 4.65665L17 4.5V3C17 2.75454 16.8231 2.55039 16.5899 2.50806L16.5 2.5ZM3 2.5H1.5C1.25454 2.5 1.05039 2.67688 1.00806 2.91012L1 3V4.5C1 5.55436 1.81588 6.41817 2.85074 6.49451L3 6.5V2.5Z" fill="#2C79E7"/>
</svg>
