<svg width="20" height="18" viewBox="0 0 20 18" fill="none" xmlns="http://www.w3.org/2000/svg">
<path fill-rule="evenodd" clip-rule="evenodd" d="M5.5 0.5C6.70968 0.5 7.71869 1.35917 7.95011 2.50057L19.5 2.5C19.7761 2.5 20 2.72386 20 3C20 3.27614 19.7761 3.5 19.5 3.5L7.9499 3.50043C7.7181 4.64134 6.70933 5.5 5.5 5.5C4.29067 5.5 3.2819 4.64134 3.0501 3.50043L0.5 3.5C0.223858 3.5 0 3.27614 0 3C0 2.72386 0.223858 2.5 0.5 2.5L3.04989 2.50057C3.28131 1.35917 4.29032 0.5 5.5 0.5ZM5.5 1.5C4.67157 1.5 4 2.17157 4 3C4 3.82843 4.67157 4.5 5.5 4.5C6.32843 4.5 7 3.82843 7 3C7 2.17157 6.32843 1.5 5.5 1.5ZM14.5 6.5C15.7097 6.5 16.7187 7.35917 16.9501 8.50057L19.5 8.5C19.7761 8.5 20 8.72386 20 9C20 9.27614 19.7761 9.5 19.5 9.5L16.9499 9.50043C16.7181 10.6413 15.7093 11.5 14.5 11.5C13.2907 11.5 12.2819 10.6413 12.0501 9.50043L0.5 9.5C0.223858 9.5 0 9.27614 0 9C0 8.72386 0.223858 8.5 0.5 8.5L12.0499 8.50057C12.2813 7.35917 13.2903 6.5 14.5 6.5ZM14.5 7.5C13.6716 7.5 13 8.17157 13 9C13 9.82843 13.6716 10.5 14.5 10.5C15.3284 10.5 16 9.82843 16 9C16 8.17157 15.3284 7.5 14.5 7.5ZM5.5 12.5C6.70968 12.5 7.71869 13.3592 7.95011 14.5006L19.5 14.5C19.7761 14.5 20 14.7239 20 15C20 15.2761 19.7761 15.5 19.5 15.5L7.9499 15.5004C7.7181 16.6413 6.70933 17.5 5.5 17.5C4.29067 17.5 3.2819 16.6413 3.0501 15.5004L0.5 15.5C0.223858 15.5 0 15.2761 0 15C0 14.7239 0.223858 14.5 0.5 14.5L3.04989 14.5006C3.28131 13.3592 4.29032 12.5 5.5 12.5ZM5.5 13.5C4.67157 13.5 4 14.1716 4 15C4 15.8284 4.67157 16.5 5.5 16.5C6.32843 16.5 7 15.8284 7 15C7 14.1716 6.32843 13.5 5.5 13.5Z" fill="#2C79E7"/>
</svg>
